<?xml version="1.0" encoding="UTF-8" standalone="no"?>
<!-- Created with Inkscape (http://www.inkscape.org/) -->

<svg
   xmlns:dc="http://purl.org/dc/elements/1.1/"
   xmlns:cc="http://creativecommons.org/ns#"
   xmlns:rdf="http://www.w3.org/1999/02/22-rdf-syntax-ns#"
   xmlns:svg="http://www.w3.org/2000/svg"
   xmlns="http://www.w3.org/2000/svg"
   xmlns:sodipodi="http://sodipodi.sourceforge.net/DTD/sodipodi-0.dtd"
   xmlns:inkscape="http://www.inkscape.org/namespaces/inkscape"
   width="16"
   height="16"
   id="svg2"
   version="1.1"
   inkscape:version="0.48.5 r10040"
   sodipodi:docname="data.svg">
  <defs
     id="defs4" />
  <sodipodi:namedview
     id="base"
     pagecolor="#ffffff"
     bordercolor="#666666"
     borderopacity="1.0"
     inkscape:pageopacity="0.0"
     inkscape:pageshadow="2"
     inkscape:zoom="17.009132"
     inkscape:cx="13.026072"
     inkscape:cy="11.143511"
     inkscape:document-units="px"
     inkscape:current-layer="layer2"
     showgrid="true"
     inkscape:window-width="1366"
     inkscape:window-height="752"
     inkscape:window-x="-1"
     inkscape:window-y="-15"
     inkscape:window-maximized="1">
    <inkscape:grid
       type="xygrid"
       id="grid2985"
       empspacing="2"
       visible="true"
       enabled="true"
       snapvisiblegridlinesonly="true" />
  </sodipodi:namedview>
  <metadata
     id="metadata7">
    <rdf:RDF>
      <cc:Work
         rdf:about="">
        <dc:format>image/svg+xml</dc:format>
        <dc:type
           rdf:resource="http://purl.org/dc/dcmitype/StillImage" />
        <dc:title></dc:title>
      </cc:Work>
    </rdf:RDF>
  </metadata>
  <g
     inkscape:label="Layer 1"
     inkscape:groupmode="layer"
     id="layer1"
     transform="translate(0,-1036.3622)" />
  <g
     inkscape:groupmode="layer"
     id="layer2"
     inkscape:label="Layer">
    <path
       style="opacity:0.97000001999999996;fill:#000000;fill-opacity:1;stroke:none"
       d="M 3.25,1 C 2.0073593,1 1,2.3431458 1,4 1,5.6568542 2.0073593,7 3.25,7 4.4926407,7 5.5,5.6568542 5.5,4 5.5,2.3431458 4.4926407,1 3.25,1 z m 0,1 C 3.9403559,2 4.5,2.8954305 4.5,4 4.5,5.1045695 3.9403559,6 3.25,6 2.5596441,6 2,5.1045695 2,4 2,2.8954305 2.5596441,2 3.25,2 z"
       id="path3026"
       inkscape:connector-curvature="0" />
    <path
       style="opacity:0.97000001999999996;fill:#000000;fill-opacity:1;stroke:none"
       d="m 8,1 -1,0.5 0,1 1,0 L 8,6 7,6 7,7 10,7 10,6 9,6 9,1 8,1 z"
       id="rect3799"
       inkscape:connector-curvature="0" />
    <path
       id="path3808"
       d="m 7,9 -1,0.5 0,1 1,0 0,3.5 -1,0 0,1 3,0 0,-1 -1,0 0,-5 -1,0 z"
       style="opacity:0.97000001999999996;fill:#000000;fill-opacity:1;stroke:none"
       inkscape:connector-curvature="0" />
    <path
       inkscape:connector-curvature="0"
       style="opacity:0.97000001999999996;fill:#000000;fill-opacity:1;stroke:none"
       d="m 2,9 -1,0.5 0,1 1,0 0,3.5 -1,0 0,1 3,0 0,-1 -1,0 0,-5 -1,0 z"
       id="path3810" />
    <path
       style="opacity:0.97000001999999996;fill:#000000;fill-opacity:1;stroke:none"
       d="m 12.75,9 c -1.242641,0 -2.25,1.343146 -2.25,3 0,1.656854 1.007359,3 2.25,3 C 13.992641,15 15,13.656854 15,12 15,10.343146 13.992641,9 12.75,9 z m 0,1 c 0.690356,0 1.25,0.895431 1.25,2 0,1.10457 -0.559644,2 -1.25,2 -0.690356,0 -1.25,-0.89543 -1.25,-2 0,-1.104569 0.559644,-2 1.25,-2 z"
       id="path3812"
       inkscape:connector-curvature="0" />
    <path
       inkscape:connector-curvature="0"
       id="path3814"
       d="m 13,1 -1,0.5 0,1 1,0 0,3.5 -1,0 0,1 3,0 0,-1 -1,0 0,-5 -1,0 z"
       style="opacity:0.97000001999999996;fill:#000000;fill-opacity:1;stroke:none" />
  </g>
</svg>
