<?xml version="1.0" encoding="UTF-8" standalone="no"?>
<!-- Created with Inkscape (http://www.inkscape.org/) -->

<svg
   xmlns:dc="http://purl.org/dc/elements/1.1/"
   xmlns:cc="http://creativecommons.org/ns#"
   xmlns:rdf="http://www.w3.org/1999/02/22-rdf-syntax-ns#"
   xmlns:svg="http://www.w3.org/2000/svg"
   xmlns="http://www.w3.org/2000/svg"
   xmlns:sodipodi="http://sodipodi.sourceforge.net/DTD/sodipodi-0.dtd"
   xmlns:inkscape="http://www.inkscape.org/namespaces/inkscape"
   width="16"
   height="16"
   id="svg9131"
   version="1.1"
   inkscape:version="0.48.5 r10040"
   sodipodi:docname="unit.svg">
  <defs
     id="defs9133" />
  <sodipodi:namedview
     id="base"
     pagecolor="#ffffff"
     bordercolor="#666666"
     borderopacity="1.0"
     inkscape:pageopacity="0.0"
     inkscape:pageshadow="2"
     inkscape:zoom="21.807692"
     inkscape:cx="8.2222796"
     inkscape:cy="5.6986304"
     inkscape:document-units="px"
     inkscape:current-layer="layer1"
     showgrid="true"
     inkscape:window-width="1366"
     inkscape:window-height="752"
     inkscape:window-x="-1"
     inkscape:window-y="-15"
     inkscape:window-maximized="1">
    <inkscape:grid
       type="xygrid"
       id="grid9139"
       empspacing="2"
       visible="true"
       enabled="true"
       snapvisiblegridlinesonly="true" />
  </sodipodi:namedview>
  <metadata
     id="metadata9136">
    <rdf:RDF>
      <cc:Work
         rdf:about="">
        <dc:format>image/svg+xml</dc:format>
        <dc:type
           rdf:resource="http://purl.org/dc/dcmitype/StillImage" />
        <dc:title></dc:title>
      </cc:Work>
    </rdf:RDF>
  </metadata>
  <g
     inkscape:label="Layer 1"
     inkscape:groupmode="layer"
     id="layer1"
     transform="translate(0,-1036.3622)">
    <g
       id="g9723"
       transform="translate(0,1)">
      <path
         transform="translate(0,1036.3622)"
         d="M 3,6.5 C 3,7.3284271 2.3284271,8 1.5,8 0.67157288,8 0,7.3284271 0,6.5 0,5.6715729 0.67157288,5 1.5,5 2.3284271,5 3,5.6715729 3,6.5 z"
         sodipodi:ry="1.5"
         sodipodi:rx="1.5"
         sodipodi:cy="6.5"
         sodipodi:cx="1.5"
         id="path9717"
         style="fill:#000000;fill-opacity:1;stroke:none"
         sodipodi:type="arc" />
      <path
         inkscape:connector-curvature="0"
         id="path9719"
         d="m 1.5,1042.8622 3.5,0"
         style="fill:none;stroke:#000000;stroke-width:1px;stroke-linecap:butt;stroke-linejoin:miter;stroke-opacity:1" />
    </g>
    <rect
       style="fill:#000000;fill-opacity:0.50196078;stroke:#000000;stroke-width:1;stroke-opacity:1"
       id="rect9721"
       width="5"
       height="12"
       x="5.5"
       y="1037.8622"
       ry="1"
       rx="1" />
    <g
       id="g9727"
       transform="matrix(-1,0,0,1,16,-2)">
      <path
         sodipodi:type="arc"
         style="fill:#000000;fill-opacity:1;stroke:none"
         id="path9729"
         sodipodi:cx="1.5"
         sodipodi:cy="6.5"
         sodipodi:rx="1.5"
         sodipodi:ry="1.5"
         d="M 3,6.5 C 3,7.3284271 2.3284271,8 1.5,8 0.67157288,8 0,7.3284271 0,6.5 0,5.6715729 0.67157288,5 1.5,5 2.3284271,5 3,5.6715729 3,6.5 z"
         transform="translate(0,1036.3622)" />
      <path
         style="fill:none;stroke:#000000;stroke-width:1px;stroke-linecap:butt;stroke-linejoin:miter;stroke-opacity:1"
         d="m 1.5,1042.8622 3.5,0"
         id="path9731"
         inkscape:connector-curvature="0" />
    </g>
    <g
       transform="matrix(-1,0,0,1,16,4)"
       id="g9733">
      <path
         transform="translate(0,1036.3622)"
         d="M 3,6.5 C 3,7.3284271 2.3284271,8 1.5,8 0.67157288,8 0,7.3284271 0,6.5 0,5.6715729 0.67157288,5 1.5,5 2.3284271,5 3,5.6715729 3,6.5 z"
         sodipodi:ry="1.5"
         sodipodi:rx="1.5"
         sodipodi:cy="6.5"
         sodipodi:cx="1.5"
         id="path9735"
         style="fill:#000000;fill-opacity:1;stroke:none"
         sodipodi:type="arc" />
      <path
         inkscape:connector-curvature="0"
         id="path9737"
         d="m 1.5,1042.8622 3.5,0"
         style="fill:none;stroke:#000000;stroke-width:1px;stroke-linecap:butt;stroke-linejoin:miter;stroke-opacity:1" />
    </g>
  </g>
</svg>
