<?xml version="1.0" encoding="UTF-8" standalone="no"?>
<!-- Created with Inkscape (http://www.inkscape.org/) -->

<svg
   xmlns:dc="http://purl.org/dc/elements/1.1/"
   xmlns:cc="http://creativecommons.org/ns#"
   xmlns:rdf="http://www.w3.org/1999/02/22-rdf-syntax-ns#"
   xmlns:svg="http://www.w3.org/2000/svg"
   xmlns="http://www.w3.org/2000/svg"
   xmlns:xlink="http://www.w3.org/1999/xlink"
   xmlns:sodipodi="http://sodipodi.sourceforge.net/DTD/sodipodi-0.dtd"
   xmlns:inkscape="http://www.inkscape.org/namespaces/inkscape"
   width="16"
   height="16"
   id="svg10334"
   version="1.1"
   inkscape:version="0.48.5 r10040"
   sodipodi:docname="logo_small.svg"
   inkscape:export-filename="/home/jesse/Documents/impulse/src/impulse/icons/logo_16.png"
   inkscape:export-xdpi="90"
   inkscape:export-ydpi="90">
  <defs
     id="defs10336">
    <linearGradient
       id="linearGradient11062">
      <stop
         id="stop11064"
         offset="0"
         style="stop-color:#202020;stop-opacity:1;" />
      <stop
         style="stop-color:#404040;stop-opacity:1;"
         offset="0.34999999"
         id="stop11066" />
      <stop
         style="stop-color:#101010;stop-opacity:1;"
         offset="0.44999999"
         id="stop11068" />
      <stop
         id="stop11070"
         offset="0.60000002"
         style="stop-color:#101010;stop-opacity:1;" />
      <stop
         style="stop-color:#282828;stop-opacity:1;"
         offset="0.75"
         id="stop11072" />
      <stop
         id="stop11074"
         offset="1"
         style="stop-color:#323232;stop-opacity:1;" />
    </linearGradient>
    <linearGradient
       id="linearGradient11040">
      <stop
         id="stop11042"
         offset="0"
         style="stop-color:#ffffff;stop-opacity:1;" />
      <stop
         style="stop-color:#e6e6e6;stop-opacity:1;"
         offset="0.32293361"
         id="stop11044" />
      <stop
         style="stop-color:#505050;stop-opacity:1;"
         offset="0.44999999"
         id="stop11046" />
      <stop
         id="stop11048"
         offset="0.6417473"
         style="stop-color:#505050;stop-opacity:1;" />
      <stop
         style="stop-color:#b4b4b4;stop-opacity:1;"
         offset="1"
         id="stop11050" />
      <stop
         id="stop11052"
         offset="1"
         style="stop-color:#c0c0c0;stop-opacity:1;" />
    </linearGradient>
    <linearGradient
       id="linearGradient10998">
      <stop
         style="stop-color:#ffffff;stop-opacity:1;"
         offset="0"
         id="stop11000" />
      <stop
         id="stop11010"
         offset="0.34999999"
         style="stop-color:#e6e6e6;stop-opacity:1;" />
      <stop
         id="stop11006"
         offset="0.44999999"
         style="stop-color:#505050;stop-opacity:1;" />
      <stop
         style="stop-color:#505050;stop-opacity:1;"
         offset="0.60000002"
         id="stop11008" />
      <stop
         id="stop11012"
         offset="0.75"
         style="stop-color:#b4b4b4;stop-opacity:1;" />
      <stop
         style="stop-color:#c0c0c0;stop-opacity:1;"
         offset="1"
         id="stop11002" />
    </linearGradient>
    <linearGradient
       inkscape:collect="always"
       xlink:href="#linearGradient10998"
       id="linearGradient11993"
       gradientUnits="userSpaceOnUse"
       x1="13.125"
       y1="1039.6122"
       x2="14.875"
       y2="1039.6122" />
    <linearGradient
       inkscape:collect="always"
       xlink:href="#linearGradient10998"
       id="linearGradient11995"
       gradientUnits="userSpaceOnUse"
       x1="12.875"
       y1="1044.3622"
       x2="15.125"
       y2="1044.3622" />
    <radialGradient
       inkscape:collect="always"
       xlink:href="#linearGradient11040"
       id="radialGradient11997"
       gradientUnits="userSpaceOnUse"
       gradientTransform="matrix(1.5986903,0.39974327,-0.43355021,1.7338941,441.84262,-766.9158)"
       cx="13.499995"
       cy="1037.7689"
       fx="13.499995"
       fy="1037.7689"
       r="1.2510234" />
    <linearGradient
       inkscape:collect="always"
       xlink:href="#linearGradient10998"
       id="linearGradient11999"
       gradientUnits="userSpaceOnUse"
       x1="12.375"
       y1="1048.8622"
       x2="15.625"
       y2="1048.8622" />
    <linearGradient
       inkscape:collect="always"
       xlink:href="#linearGradient11062"
       id="linearGradient12001"
       gradientUnits="userSpaceOnUse"
       x1="11.875"
       y1="1052.2372"
       x2="16.125"
       y2="1052.2372" />
    <linearGradient
       inkscape:collect="always"
       xlink:href="#linearGradient11062"
       id="linearGradient12003"
       gradientUnits="userSpaceOnUse"
       gradientTransform="matrix(0.86990292,0,0,1.0158377,1.8230574,1036.287)"
       x1="12.709291"
       y1="4.2616119"
       x2="15.282633"
       y2="4.2616119" />
    <linearGradient
       inkscape:collect="always"
       xlink:href="#linearGradient10998"
       id="linearGradient12040"
       gradientUnits="userSpaceOnUse"
       x1="13.125"
       y1="1039.6122"
       x2="14.875"
       y2="1039.6122" />
    <linearGradient
       inkscape:collect="always"
       xlink:href="#linearGradient10998"
       id="linearGradient12042"
       gradientUnits="userSpaceOnUse"
       x1="12.875"
       y1="1044.3622"
       x2="15.125"
       y2="1044.3622" />
    <radialGradient
       inkscape:collect="always"
       xlink:href="#linearGradient11040"
       id="radialGradient12044"
       gradientUnits="userSpaceOnUse"
       gradientTransform="matrix(1.5986903,0.39974327,-0.43355021,1.7338941,441.84262,-766.9158)"
       cx="13.499995"
       cy="1037.7689"
       fx="13.499995"
       fy="1037.7689"
       r="1.2510234" />
    <linearGradient
       inkscape:collect="always"
       xlink:href="#linearGradient10998"
       id="linearGradient12046"
       gradientUnits="userSpaceOnUse"
       x1="12.375"
       y1="1048.8622"
       x2="15.625"
       y2="1048.8622" />
    <linearGradient
       inkscape:collect="always"
       xlink:href="#linearGradient11062"
       id="linearGradient12048"
       gradientUnits="userSpaceOnUse"
       x1="11.875"
       y1="1052.2372"
       x2="16.125"
       y2="1052.2372" />
    <linearGradient
       inkscape:collect="always"
       xlink:href="#linearGradient11062"
       id="linearGradient12050"
       gradientUnits="userSpaceOnUse"
       gradientTransform="matrix(0.86990292,0,0,1.0158377,1.8230574,1036.287)"
       x1="12.709291"
       y1="4.2616119"
       x2="15.282633"
       y2="4.2616119" />
    <linearGradient
       inkscape:collect="always"
       xlink:href="#linearGradient10998"
       id="linearGradient12052"
       gradientUnits="userSpaceOnUse"
       x1="13.125"
       y1="1039.6122"
       x2="14.875"
       y2="1039.6122" />
    <linearGradient
       inkscape:collect="always"
       xlink:href="#linearGradient10998"
       id="linearGradient12054"
       gradientUnits="userSpaceOnUse"
       x1="12.875"
       y1="1044.3622"
       x2="15.125"
       y2="1044.3622" />
    <radialGradient
       inkscape:collect="always"
       xlink:href="#linearGradient11040"
       id="radialGradient12056"
       gradientUnits="userSpaceOnUse"
       gradientTransform="matrix(1.5986903,0.39974327,-0.43355021,1.7338941,441.84262,-766.9158)"
       cx="13.499995"
       cy="1037.7689"
       fx="13.499995"
       fy="1037.7689"
       r="1.2510234" />
    <linearGradient
       inkscape:collect="always"
       xlink:href="#linearGradient10998"
       id="linearGradient12058"
       gradientUnits="userSpaceOnUse"
       x1="12.375"
       y1="1048.8622"
       x2="15.625"
       y2="1048.8622" />
    <linearGradient
       inkscape:collect="always"
       xlink:href="#linearGradient11062"
       id="linearGradient12060"
       gradientUnits="userSpaceOnUse"
       x1="11.875"
       y1="1052.2372"
       x2="16.125"
       y2="1052.2372" />
    <linearGradient
       inkscape:collect="always"
       xlink:href="#linearGradient11062"
       id="linearGradient12062"
       gradientUnits="userSpaceOnUse"
       gradientTransform="matrix(0.86990292,0,0,1.0158377,1.8230574,1036.287)"
       x1="12.709291"
       y1="4.2616119"
       x2="15.282633"
       y2="4.2616119" />
    <linearGradient
       inkscape:collect="always"
       xlink:href="#linearGradient10998"
       id="linearGradient12064"
       gradientUnits="userSpaceOnUse"
       x1="13.125"
       y1="1039.6122"
       x2="14.875"
       y2="1039.6122" />
    <linearGradient
       inkscape:collect="always"
       xlink:href="#linearGradient10998"
       id="linearGradient12066"
       gradientUnits="userSpaceOnUse"
       x1="12.875"
       y1="1044.3622"
       x2="15.125"
       y2="1044.3622" />
    <radialGradient
       inkscape:collect="always"
       xlink:href="#linearGradient11040"
       id="radialGradient12068"
       gradientUnits="userSpaceOnUse"
       gradientTransform="matrix(1.5986903,0.39974327,-0.43355021,1.7338941,441.84262,-766.9158)"
       cx="13.499995"
       cy="1037.7689"
       fx="13.499995"
       fy="1037.7689"
       r="1.2510234" />
    <linearGradient
       inkscape:collect="always"
       xlink:href="#linearGradient10998"
       id="linearGradient12070"
       gradientUnits="userSpaceOnUse"
       x1="12.375"
       y1="1048.8622"
       x2="15.625"
       y2="1048.8622" />
    <linearGradient
       inkscape:collect="always"
       xlink:href="#linearGradient11062"
       id="linearGradient12072"
       gradientUnits="userSpaceOnUse"
       x1="11.875"
       y1="1052.2372"
       x2="16.125"
       y2="1052.2372" />
    <linearGradient
       inkscape:collect="always"
       xlink:href="#linearGradient11062"
       id="linearGradient12074"
       gradientUnits="userSpaceOnUse"
       gradientTransform="matrix(0.86990292,0,0,1.0158377,1.8230574,1036.287)"
       x1="12.709291"
       y1="4.2616119"
       x2="15.282633"
       y2="4.2616119" />
    <linearGradient
       inkscape:collect="always"
       xlink:href="#linearGradient10998"
       id="linearGradient12076"
       gradientUnits="userSpaceOnUse"
       x1="13.125"
       y1="1039.6122"
       x2="14.875"
       y2="1039.6122" />
    <linearGradient
       inkscape:collect="always"
       xlink:href="#linearGradient10998"
       id="linearGradient12078"
       gradientUnits="userSpaceOnUse"
       x1="12.875"
       y1="1044.3622"
       x2="15.125"
       y2="1044.3622" />
    <radialGradient
       inkscape:collect="always"
       xlink:href="#linearGradient11040"
       id="radialGradient12080"
       gradientUnits="userSpaceOnUse"
       gradientTransform="matrix(1.5986903,0.39974327,-0.43355021,1.7338941,441.84262,-766.9158)"
       cx="13.499995"
       cy="1037.7689"
       fx="13.499995"
       fy="1037.7689"
       r="1.2510234" />
    <linearGradient
       inkscape:collect="always"
       xlink:href="#linearGradient10998"
       id="linearGradient12082"
       gradientUnits="userSpaceOnUse"
       x1="12.375"
       y1="1048.8622"
       x2="15.625"
       y2="1048.8622" />
    <linearGradient
       inkscape:collect="always"
       xlink:href="#linearGradient11062"
       id="linearGradient12084"
       gradientUnits="userSpaceOnUse"
       x1="11.875"
       y1="1052.2372"
       x2="16.125"
       y2="1052.2372" />
    <linearGradient
       inkscape:collect="always"
       xlink:href="#linearGradient11062"
       id="linearGradient12086"
       gradientUnits="userSpaceOnUse"
       gradientTransform="matrix(0.86990292,0,0,1.0158377,1.8230574,1036.287)"
       x1="12.709291"
       y1="4.2616119"
       x2="15.282633"
       y2="4.2616119" />
    <linearGradient
       inkscape:collect="always"
       xlink:href="#linearGradient10998"
       id="linearGradient12224"
       gradientUnits="userSpaceOnUse"
       x1="13.125"
       y1="1039.6122"
       x2="14.875"
       y2="1039.6122" />
    <radialGradient
       inkscape:collect="always"
       xlink:href="#linearGradient11040"
       id="radialGradient12226"
       gradientUnits="userSpaceOnUse"
       gradientTransform="matrix(1.5986903,0.39974327,-0.43355021,1.7338941,441.84262,-766.9158)"
       cx="13.499995"
       cy="1037.7689"
       fx="13.499995"
       fy="1037.7689"
       r="1.2510234" />
    <linearGradient
       inkscape:collect="always"
       xlink:href="#linearGradient10998"
       id="linearGradient12228"
       gradientUnits="userSpaceOnUse"
       x1="12.375"
       y1="1048.8622"
       x2="15.625"
       y2="1048.8622" />
    <linearGradient
       inkscape:collect="always"
       xlink:href="#linearGradient11062"
       id="linearGradient12230"
       gradientUnits="userSpaceOnUse"
       x1="11.875"
       y1="1052.2372"
       x2="16.125"
       y2="1052.2372" />
    <linearGradient
       inkscape:collect="always"
       xlink:href="#linearGradient11062"
       id="linearGradient12232"
       gradientUnits="userSpaceOnUse"
       gradientTransform="matrix(0.86990292,0,0,1.0158377,1.8230574,1036.287)"
       x1="12.709291"
       y1="4.2616119"
       x2="15.282633"
       y2="4.2616119" />
    <linearGradient
       inkscape:collect="always"
       xlink:href="#linearGradient11062"
       id="linearGradient12235"
       gradientUnits="userSpaceOnUse"
       gradientTransform="matrix(0.86990292,0,0,1.0158377,167.05878,1023.6996)"
       x1="12.709291"
       y1="4.2616119"
       x2="15.282633"
       y2="4.2616119" />
    <linearGradient
       inkscape:collect="always"
       xlink:href="#linearGradient11062"
       id="linearGradient12238"
       gradientUnits="userSpaceOnUse"
       x1="11.875"
       y1="1052.2372"
       x2="16.125"
       y2="1052.2372"
       gradientTransform="translate(165.23573,-12.587442)" />
    <linearGradient
       inkscape:collect="always"
       xlink:href="#linearGradient10998"
       id="linearGradient12252"
       gradientUnits="userSpaceOnUse"
       x1="13.125"
       y1="1039.6122"
       x2="14.875"
       y2="1039.6122" />
    <linearGradient
       inkscape:collect="always"
       xlink:href="#linearGradient10998"
       id="linearGradient12254"
       gradientUnits="userSpaceOnUse"
       x1="12.875"
       y1="1044.3622"
       x2="15.125"
       y2="1044.3622" />
    <radialGradient
       inkscape:collect="always"
       xlink:href="#linearGradient11040"
       id="radialGradient12256"
       gradientUnits="userSpaceOnUse"
       gradientTransform="matrix(1.5986903,0.39974327,-0.43355021,1.7338941,441.84262,-766.9158)"
       cx="13.499995"
       cy="1037.7689"
       fx="13.499995"
       fy="1037.7689"
       r="1.2510234" />
    <linearGradient
       inkscape:collect="always"
       xlink:href="#linearGradient10998"
       id="linearGradient12258"
       gradientUnits="userSpaceOnUse"
       x1="12.375"
       y1="1048.8622"
       x2="15.625"
       y2="1048.8622" />
    <linearGradient
       inkscape:collect="always"
       xlink:href="#linearGradient11062"
       id="linearGradient12260"
       gradientUnits="userSpaceOnUse"
       x1="11.875"
       y1="1052.2372"
       x2="16.125"
       y2="1052.2372" />
    <linearGradient
       inkscape:collect="always"
       xlink:href="#linearGradient11062"
       id="linearGradient12262"
       gradientUnits="userSpaceOnUse"
       gradientTransform="matrix(0.86990292,0,0,1.0158377,1.8230574,1036.287)"
       x1="12.709291"
       y1="4.2616119"
       x2="15.282633"
       y2="4.2616119" />
    <linearGradient
       inkscape:collect="always"
       xlink:href="#linearGradient11062"
       id="linearGradient12265"
       gradientUnits="userSpaceOnUse"
       gradientTransform="matrix(0.86990292,0,0,1.0158377,73.862407,1033.6383)"
       x1="12.709291"
       y1="4.2616119"
       x2="15.282633"
       y2="4.2616119" />
    <linearGradient
       inkscape:collect="always"
       xlink:href="#linearGradient10998"
       id="linearGradient12282"
       gradientUnits="userSpaceOnUse"
       x1="13.125"
       y1="1039.6122"
       x2="14.875"
       y2="1039.6122" />
    <linearGradient
       inkscape:collect="always"
       xlink:href="#linearGradient10998"
       id="linearGradient12284"
       gradientUnits="userSpaceOnUse"
       x1="12.875"
       y1="1044.3622"
       x2="15.125"
       y2="1044.3622" />
    <radialGradient
       inkscape:collect="always"
       xlink:href="#linearGradient11040"
       id="radialGradient12286"
       gradientUnits="userSpaceOnUse"
       gradientTransform="matrix(1.5986903,0.39974327,-0.43355021,1.7338941,441.84262,-766.9158)"
       cx="13.499995"
       cy="1037.7689"
       fx="13.499995"
       fy="1037.7689"
       r="1.2510234" />
    <linearGradient
       inkscape:collect="always"
       xlink:href="#linearGradient10998"
       id="linearGradient12288"
       gradientUnits="userSpaceOnUse"
       x1="12.375"
       y1="1048.8622"
       x2="15.625"
       y2="1048.8622" />
    <linearGradient
       inkscape:collect="always"
       xlink:href="#linearGradient11062"
       id="linearGradient12290"
       gradientUnits="userSpaceOnUse"
       x1="11.875"
       y1="1052.2372"
       x2="16.125"
       y2="1052.2372" />
    <linearGradient
       inkscape:collect="always"
       xlink:href="#linearGradient11062"
       id="linearGradient12292"
       gradientUnits="userSpaceOnUse"
       gradientTransform="matrix(0.86990292,0,0,1.0158377,1.8230574,1036.287)"
       x1="12.709291"
       y1="4.2616119"
       x2="15.282633"
       y2="4.2616119" />
    <linearGradient
       inkscape:collect="always"
       xlink:href="#linearGradient11062"
       id="linearGradient12295"
       gradientUnits="userSpaceOnUse"
       gradientTransform="matrix(0.86990292,0,0,1.0158377,-20.176943,1035.7783)"
       x1="12.709291"
       y1="4.2616119"
       x2="15.282633"
       y2="4.2616119" />
    <linearGradient
       inkscape:collect="always"
       xlink:href="#linearGradient10998"
       id="linearGradient12312"
       gradientUnits="userSpaceOnUse"
       x1="13.125"
       y1="1039.6122"
       x2="14.875"
       y2="1039.6122" />
    <linearGradient
       inkscape:collect="always"
       xlink:href="#linearGradient10998"
       id="linearGradient12314"
       gradientUnits="userSpaceOnUse"
       x1="12.875"
       y1="1044.3622"
       x2="15.125"
       y2="1044.3622" />
    <radialGradient
       inkscape:collect="always"
       xlink:href="#linearGradient11040"
       id="radialGradient12316"
       gradientUnits="userSpaceOnUse"
       gradientTransform="matrix(1.5986903,0.39974327,-0.43355021,1.7338941,441.84262,-766.9158)"
       cx="13.499995"
       cy="1037.7689"
       fx="13.499995"
       fy="1037.7689"
       r="1.2510234" />
    <linearGradient
       inkscape:collect="always"
       xlink:href="#linearGradient10998"
       id="linearGradient12318"
       gradientUnits="userSpaceOnUse"
       x1="12.375"
       y1="1048.8622"
       x2="15.625"
       y2="1048.8622" />
    <linearGradient
       inkscape:collect="always"
       xlink:href="#linearGradient11062"
       id="linearGradient12320"
       gradientUnits="userSpaceOnUse"
       x1="11.875"
       y1="1052.2372"
       x2="16.125"
       y2="1052.2372" />
    <linearGradient
       inkscape:collect="always"
       xlink:href="#linearGradient11062"
       id="linearGradient12322"
       gradientUnits="userSpaceOnUse"
       gradientTransform="matrix(0.86990292,0,0,1.0158377,1.8230574,1036.287)"
       x1="12.709291"
       y1="4.2616119"
       x2="15.282633"
       y2="4.2616119" />
    <linearGradient
       inkscape:collect="always"
       xlink:href="#linearGradient11062"
       id="linearGradient12325"
       gradientUnits="userSpaceOnUse"
       gradientTransform="matrix(0.86990292,0,0,1.0158377,-114.1245,1032.0359)"
       x1="12.709291"
       y1="4.2616119"
       x2="15.282633"
       y2="4.2616119" />
    <linearGradient
       inkscape:collect="always"
       xlink:href="#linearGradient10998"
       id="linearGradient12342"
       gradientUnits="userSpaceOnUse"
       x1="13.125"
       y1="1039.6122"
       x2="14.875"
       y2="1039.6122" />
    <linearGradient
       inkscape:collect="always"
       xlink:href="#linearGradient10998"
       id="linearGradient12344"
       gradientUnits="userSpaceOnUse"
       x1="12.875"
       y1="1044.3622"
       x2="15.125"
       y2="1044.3622" />
    <radialGradient
       inkscape:collect="always"
       xlink:href="#linearGradient11040"
       id="radialGradient12346"
       gradientUnits="userSpaceOnUse"
       gradientTransform="matrix(1.5986903,0.39974327,-0.43355021,1.7338941,441.84262,-766.9158)"
       cx="13.499995"
       cy="1037.7689"
       fx="13.499995"
       fy="1037.7689"
       r="1.2510234" />
    <linearGradient
       inkscape:collect="always"
       xlink:href="#linearGradient10998"
       id="linearGradient12348"
       gradientUnits="userSpaceOnUse"
       x1="12.375"
       y1="1048.8622"
       x2="15.625"
       y2="1048.8622" />
    <linearGradient
       inkscape:collect="always"
       xlink:href="#linearGradient11062"
       id="linearGradient12350"
       gradientUnits="userSpaceOnUse"
       x1="11.875"
       y1="1052.2372"
       x2="16.125"
       y2="1052.2372" />
    <linearGradient
       inkscape:collect="always"
       xlink:href="#linearGradient11062"
       id="linearGradient12352"
       gradientUnits="userSpaceOnUse"
       gradientTransform="matrix(0.86990292,0,0,1.0158377,1.8230574,1036.287)"
       x1="12.709291"
       y1="4.2616119"
       x2="15.282633"
       y2="4.2616119" />
    <linearGradient
       inkscape:collect="always"
       xlink:href="#linearGradient11062"
       id="linearGradient12355"
       gradientUnits="userSpaceOnUse"
       gradientTransform="matrix(0.86990292,0,0,1.0158377,-207.13336,1021.007)"
       x1="12.709291"
       y1="4.2616119"
       x2="15.282633"
       y2="4.2616119" />
  </defs>
  <sodipodi:namedview
     id="base"
     pagecolor="#ffffff"
     bordercolor="#666666"
     borderopacity="1.0"
     inkscape:pageopacity="0.0"
     inkscape:pageshadow="2"
     inkscape:zoom="16"
     inkscape:cx="16.870416"
     inkscape:cy="11.017687"
     inkscape:document-units="px"
     inkscape:current-layer="layer1"
     showgrid="false"
     inkscape:snap-global="true"
     inkscape:window-width="1366"
     inkscape:window-height="752"
     inkscape:window-x="-1"
     inkscape:window-y="-15"
     inkscape:window-maximized="1">
    <inkscape:grid
       type="xygrid"
       id="grid10959"
       empspacing="2"
       visible="true"
       enabled="true"
       snapvisiblegridlinesonly="true" />
  </sodipodi:namedview>
  <metadata
     id="metadata10339">
    <rdf:RDF>
      <cc:Work
         rdf:about="">
        <dc:format>image/svg+xml</dc:format>
        <dc:type
           rdf:resource="http://purl.org/dc/dcmitype/StillImage" />
        <dc:title></dc:title>
      </cc:Work>
    </rdf:RDF>
  </metadata>
  <g
     inkscape:label="Layer 1"
     inkscape:groupmode="layer"
     id="layer1"
     transform="translate(0,-1036.3622)">
    <rect
       style="fill:#000000;fill-opacity:1;stroke:none"
       id="rect11650"
       width="16"
       height="16"
       x="0"
       y="0"
       transform="translate(0,1036.3622)" />
    <path
       style="fill:#ffffff;fill-opacity:1;stroke:none;stroke-width:0.25000000000000000;stroke-miterlimit:4;stroke-opacity:1;stroke-dasharray:none"
       d="M 1.5625 3.9375 L 1.3125 4 A 0.250025 0.250025 0 0 0 1.28125 4 A 0.250025 0.250025 0 0 0 1.21875 4.03125 A 0.250025 0.250025 0 0 0 1.1875 4.0625 A 0.250025 0.250025 0 0 0 1.15625 4.125 A 0.250025 0.250025 0 0 0 1.125 4.15625 L 0.59375 5.5 A 0.250025 0.250025 0 0 0 0.59375 5.53125 A 0.250025 0.250025 0 0 0 0.59375 5.65625 A 0.250025 0.250025 0 0 0 0.65625 5.75 A 0.250025 0.250025 0 0 0 0.6875 5.8125 A 0.250025 0.250025 0 0 0 0.78125 5.84375 A 0.250025 0.250025 0 0 0 0.8125 5.84375 A 0.250025 0.250025 0 0 0 0.84375 5.84375 A 0.250025 0.250025 0 0 0 0.875 5.84375 L 1 5.8125 L 1.125 6.5625 C 0.98860413 6.5865503 0.91344973 6.7073541 0.9375 6.84375 L 2.3125 14.75 L 2.0625 14.78125 C 1.9261041 14.8053 1.8509497 14.926104 1.875 15.0625 L 2.03125 16.03125 C 2.0553003 16.167646 2.2073541 16.27405 2.34375 16.25 L 4.78125 15.8125 C 4.9176459 15.78845 5.0240503 15.667646 5 15.53125 L 4.8125 14.53125 C 4.7884497 14.394854 4.6676459 14.3197 4.53125 14.34375 L 4.28125 14.375 L 2.90625 6.5 C 2.8821997 6.3636041 2.7613959 6.2884497 2.625 6.3125 L 2.59375 6.3125 L 2.46875 5.5625 L 2.59375 5.53125 A 0.250025 0.250025 0 0 0 2.65625 5.53125 A 0.250025 0.250025 0 0 0 2.78125 5.40625 A 0.250025 0.250025 0 0 0 2.8125 5.375 A 0.250025 0.250025 0 0 0 2.8125 5.3125 A 0.250025 0.250025 0 0 0 2.8125 5.25 A 0.250025 0.250025 0 0 0 2.78125 5.1875 A 0.250025 0.250025 0 0 0 2.75 5.125 L 1.8125 4.03125 A 0.250025 0.250025 0 0 0 1.75 4 A 0.250025 0.250025 0 0 0 1.71875 3.96875 A 0.250025 0.250025 0 0 0 1.65625 3.96875 A 0.250025 0.250025 0 0 0 1.625 3.9375 A 0.250025 0.250025 0 0 0 1.5625 3.9375 z "
       transform="translate(0,1036.3622)"
       id="rect11626" />
    <path
       style="fill:#ffffff;fill-opacity:1;stroke:none;stroke-width:0.25000000000000000;stroke-miterlimit:4;stroke-opacity:1;stroke-dasharray:none"
       d="M 14.25 4.03125 A 0.250025 0.250025 0 0 0 14.21875 4.0625 A 0.250025 0.250025 0 0 0 14.1875 4.09375 A 0.250025 0.250025 0 0 0 14.15625 4.09375 L 13.1875 5.21875 A 0.250025 0.250025 0 0 0 13.125 5.34375 A 0.250025 0.250025 0 0 0 13.15625 5.46875 A 0.250025 0.250025 0 0 0 13.25 5.59375 A 0.250025 0.250025 0 0 0 13.28125 5.59375 A 0.250025 0.250025 0 0 0 13.34375 5.625 L 13.46875 5.65625 L 13.34375 6.375 C 13.207354 6.3509497 13.08655 6.4573541 13.0625 6.59375 L 11.65625 14.4375 L 11.40625 14.40625 C 11.269854 14.3822 11.14905 14.488604 11.125 14.625 L 10.9375 15.59375 C 10.91345 15.730146 11.019854 15.8822 11.15625 15.90625 L 13.625 16.3125 C 13.761396 16.33655 13.8822 16.261396 13.90625 16.125 L 14.09375 15.125 C 14.1178 14.988604 14.011396 14.8678 13.875 14.84375 L 13.625 14.8125 L 15.03125 6.9375 C 15.0553 6.8011041 14.948896 6.6490503 14.8125 6.625 L 14.96875 5.875 L 15.0625 5.90625 A 0.250025 0.250025 0 0 0 15.09375 5.9375 A 0.250025 0.250025 0 0 0 15.125 5.9375 A 0.250025 0.250025 0 0 0 15.15625 5.9375 A 0.250025 0.250025 0 0 0 15.21875 5.90625 A 0.250025 0.250025 0 0 0 15.28125 5.875 A 0.250025 0.250025 0 0 0 15.3125 5.84375 A 0.250025 0.250025 0 0 0 15.34375 5.78125 A 0.250025 0.250025 0 0 0 15.375 5.71875 A 0.250025 0.250025 0 0 0 15.34375 5.59375 L 14.84375 4.21875 A 0.250025 0.250025 0 0 0 14.8125 4.1875 A 0.250025 0.250025 0 0 0 14.78125 4.15625 A 0.250025 0.250025 0 0 0 14.71875 4.125 A 0.250025 0.250025 0 0 0 14.6875 4.09375 L 14.6875 4.0625 A 0.250025 0.250025 0 0 0 14.625 4.0625 L 14.375 4.03125 A 0.250025 0.250025 0 0 0 14.28125 4.03125 A 0.250025 0.250025 0 0 0 14.25 4.03125 z "
       transform="translate(0,1036.3622)"
       id="rect11600" />
    <path
       style="fill:#ffffff;fill-opacity:1;stroke:none;stroke-width:0.25000000000000000;stroke-miterlimit:4;stroke-opacity:1;stroke-dasharray:none"
       d="M 4.59375 1.90625 L 4.34375 1.9375 A 0.250025 0.250025 0 0 0 4.3125 1.9375 A 0.250025 0.250025 0 0 0 4.1875 2 A 0.250025 0.250025 0 0 0 4.15625 2.03125 A 0.250025 0.250025 0 0 0 4.125 2.0625 L 3.5 3.375 A 0.250025 0.250025 0 0 0 3.5 3.40625 A 0.250025 0.250025 0 0 0 3.46875 3.53125 A 0.250025 0.250025 0 0 0 3.53125 3.625 A 0.250025 0.250025 0 0 0 3.5625 3.6875 A 0.250025 0.250025 0 0 0 3.6875 3.75 A 0.250025 0.250025 0 0 0 3.75 3.75 L 3.875 3.75 L 3.9375 4.46875 C 3.799527 4.4808211 3.7066789 4.612027 3.71875 4.75 L 4.4375 12.6875 L 4.15625 12.71875 C 4.018277 12.730821 3.9254289 12.862027 3.9375 13 L 4.03125 14 C 4.0433211 14.137973 4.143277 14.230821 4.28125 14.21875 L 6.78125 14 C 6.919223 13.987929 7.0120711 13.887973 7 13.75 L 6.9375 12.75 C 6.9254289 12.612027 6.794223 12.487929 6.65625 12.5 L 6.40625 12.53125 L 5.71875 4.5625 C 5.7066789 4.424527 5.575473 4.3316789 5.4375 4.34375 L 5.375 3.59375 L 5.5 3.59375 A 0.250025 0.250025 0 0 0 5.5625 3.5625 A 0.250025 0.250025 0 0 0 5.65625 3.5 A 0.250025 0.250025 0 0 0 5.6875 3.46875 A 0.250025 0.250025 0 0 0 5.6875 3.4375 A 0.250025 0.250025 0 0 0 5.71875 3.34375 A 0.250025 0.250025 0 0 0 5.71875 3.3125 A 0.250025 0.250025 0 0 0 5.6875 3.1875 L 4.8125 2 A 0.250025 0.250025 0 0 0 4.78125 1.96875 A 0.250025 0.250025 0 0 0 4.75 1.9375 A 0.250025 0.250025 0 0 0 4.6875 1.9375 A 0.250025 0.250025 0 0 0 4.65625 1.90625 A 0.250025 0.250025 0 0 0 4.59375 1.90625 z "
       transform="translate(0,1036.3622)"
       id="rect11574" />
    <path
       style="fill:#ffffff;fill-opacity:1;stroke:none;stroke-width:0.25000000000000000;stroke-miterlimit:4;stroke-opacity:1;stroke-dasharray:none"
       d="M 11.3125 1.6875 A 0.250025 0.250025 0 0 0 11.21875 1.71875 A 0.250025 0.250025 0 0 0 11.1875 1.75 A 0.250025 0.250025 0 0 0 11.15625 1.78125 L 10.3125 2.96875 A 0.250025 0.250025 0 0 0 10.28125 3.0625 A 0.250025 0.250025 0 0 0 10.25 3.125 A 0.250025 0.250025 0 0 0 10.28125 3.15625 A 0.250025 0.250025 0 0 0 10.28125 3.21875 A 0.250025 0.250025 0 0 0 10.4375 3.34375 A 0.250025 0.250025 0 0 0 10.5 3.375 L 10.59375 3.375 L 10.53125 4.125 C 10.406485 4.1291729 10.292416 4.216125 10.28125 4.34375 L 9.5625 12.34375 L 9.34375 12.3125 C 9.205777 12.300429 9.0745711 12.393277 9.0625 12.53125 L 8.96875 13.53125 C 8.9566789 13.669223 9.080777 13.800429 9.21875 13.8125 L 11.6875 14 C 11.825473 14.012071 11.956679 13.919223 11.96875 13.78125 L 12.0625 12.78125 C 12.074571 12.643277 11.950473 12.543321 11.8125 12.53125 L 11.5625 12.5 L 12.28125 4.53125 C 12.293321 4.393277 12.200473 4.2620711 12.0625 4.25 L 12.03125 4.25 L 12.09375 3.53125 L 12.25 3.53125 A 0.250025 0.250025 0 0 0 12.3125 3.53125 A 0.250025 0.250025 0 0 0 12.40625 3.46875 A 0.250025 0.250025 0 0 0 12.4375 3.4375 A 0.250025 0.250025 0 0 0 12.46875 3.40625 A 0.250025 0.250025 0 0 0 12.5 3.28125 A 0.250025 0.250025 0 0 0 12.5 3.25 A 0.250025 0.250025 0 0 0 12.5 3.15625 L 11.84375 1.84375 A 0.250025 0.250025 0 0 0 11.8125 1.8125 A 0.250025 0.250025 0 0 0 11.78125 1.78125 A 0.250025 0.250025 0 0 0 11.71875 1.75 A 0.250025 0.250025 0 0 0 11.71875 1.71875 A 0.250025 0.250025 0 0 0 11.65625 1.71875 L 11.40625 1.6875 A 0.250025 0.250025 0 0 0 11.3125 1.6875 z "
       transform="translate(0,1036.3622)"
       id="rect11548" />
    <path
       style="fill:#ffffff;fill-opacity:1;stroke:none;stroke-width:0.25000000000000000;stroke-miterlimit:4;stroke-opacity:1;stroke-dasharray:none"
       d="M 7.78125 0.5 A 0.250025 0.250025 0 0 0 7.75 0.53125 A 0.250025 0.250025 0 0 0 7.71875 0.5625 A 0.250025 0.250025 0 0 0 7.6875 0.59375 A 0.250025 0.250025 0 0 0 7.65625 0.625 L 6.90625 1.875 A 0.250025 0.250025 0 0 0 6.875 1.9375 A 0.250025 0.250025 0 0 0 6.875 2.03125 A 0.250025 0.250025 0 0 0 6.90625 2.125 A 0.250025 0.250025 0 0 0 6.9375 2.15625 A 0.250025 0.250025 0 0 0 6.96875 2.1875 A 0.250025 0.250025 0 0 0 7.03125 2.21875 A 0.250025 0.250025 0 0 0 7.0625 2.25 A 0.250025 0.250025 0 0 0 7.125 2.25 L 7.25 2.25 L 7.25 3 C 7.1115 3 7 3.1115 7 3.25 L 7 11.25 L 6.75 11.25 C 6.6115 11.25 6.5 11.3615 6.5 11.5 L 6.5 12.5 C 6.5 12.6385 6.6115 12.75 6.75 12.75 L 9.25 12.75 C 9.3885 12.75 9.5 12.6385 9.5 12.5 L 9.5 11.5 C 9.5 11.3615 9.3885 11.25 9.25 11.25 L 9 11.25 L 9 3.25 C 9 3.1115 8.8885 3 8.75 3 L 8.75 2.25 L 8.875 2.25 A 0.250025 0.250025 0 0 0 8.9375 2.25 A 0.250025 0.250025 0 0 0 9.0625 2.15625 A 0.250025 0.250025 0 0 0 9.09375 2.125 A 0.250025 0.250025 0 0 0 9.125 2 A 0.250025 0.250025 0 0 0 9.09375 1.875 L 8.34375 0.625 A 0.250025 0.250025 0 0 0 8.3125 0.59375 A 0.250025 0.250025 0 0 0 8.28125 0.5625 A 0.250025 0.250025 0 0 0 8.25 0.53125 A 0.250025 0.250025 0 0 0 8.21875 0.53125 A 0.250025 0.250025 0 0 0 8.1875 0.5 A 0.250025 0.250025 0 0 0 8.125 0.5 L 7.875 0.5 A 0.250025 0.250025 0 0 0 7.84375 0.5 A 0.250025 0.250025 0 0 0 7.78125 0.5 z "
       transform="translate(0,1036.3622)"
       id="rect11522" />
    <path
       style="fill:#000000;fill-opacity:1;stroke:none;stroke-width:0.25000000000000000;stroke-miterlimit:4;stroke-opacity:1;stroke-dasharray:none"
       d="M 6.25 11.625 C 6.1115 11.625 6 11.7365 6 11.875 L 6 12.9375 L 3.6875 13.15625 C 3.549527 13.168321 3.4566789 13.268277 3.46875 13.40625 L 3.59375 14.875 L 1.65625 15.21875 C 1.5198541 15.2428 1.4134497 15.394854 1.4375 15.53125 L 1.53125 16 L 14.4375 16 L 14.5 15.59375 C 14.52405 15.457354 14.448896 15.33655 14.3125 15.3125 L 12.375 14.96875 L 12.53125 13.21875 C 12.543321 13.080777 12.419223 12.949571 12.28125 12.9375 L 10 12.71875 L 10 11.875 C 10 11.7365 9.8885 11.625 9.75 11.625 L 6.25 11.625 z "
       transform="translate(0,1036.3622)"
       id="rect11634" />
  </g>
</svg>
